<svg width="603" height="210" viewBox="0 0 603 210" fill="none" xmlns="http://www.w3.org/2000/svg">
<rect x="74" y="32" width="10" height="137" fill="white"/>
<path d="M123.638 138.226C119.281 138.226 115.536 137.409 112.404 135.774C109.272 134.072 106.685 131.655 104.642 128.524C102.6 125.392 101.102 121.545 100.149 116.983C99.1957 112.422 98.7191 107.213 98.7191 101.358C98.7191 95.5708 99.1957 90.3964 100.149 85.8347C101.102 81.205 102.6 77.3242 104.642 74.1923C106.685 71.0604 109.272 68.6775 112.404 67.0435C115.536 65.3414 119.281 64.4903 123.638 64.4903C127.995 64.4903 131.74 65.3414 134.872 67.0435C138.004 68.6775 140.591 71.0604 142.633 74.1923C144.676 77.3242 146.174 81.205 147.127 85.8347C148.08 90.3964 148.557 95.5708 148.557 101.358C148.557 107.213 148.08 112.422 147.127 116.983C146.174 121.545 144.676 125.392 142.633 128.524C140.591 131.655 138.004 134.072 134.872 135.774C131.74 137.409 127.995 138.226 123.638 138.226ZM123.638 130.77C126.497 130.77 128.914 130.226 130.889 129.136C132.863 127.979 134.497 126.379 135.791 124.336C137.085 122.294 138.004 119.843 138.548 116.983C139.161 114.056 139.467 110.788 139.467 107.179V95.5367C139.467 91.9963 139.161 88.7623 138.548 85.8347C138.004 82.9071 137.085 80.422 135.791 78.3795C134.497 76.337 132.863 74.771 130.889 73.6817C128.914 72.5242 126.497 71.9455 123.638 71.9455C120.778 71.9455 118.361 72.5242 116.387 73.6817C114.412 74.771 112.778 76.337 111.485 78.3795C110.191 80.422 109.238 82.9071 108.625 85.8347C108.081 88.7623 107.808 91.9963 107.808 95.5367V107.179C107.808 110.788 108.081 114.056 108.625 116.983C109.238 119.843 110.191 122.294 111.485 124.336C112.778 126.379 114.412 127.979 116.387 129.136C118.361 130.226 120.778 130.77 123.638 130.77ZM163.938 84.3028H172.108V92.8814H172.517C175.921 86.3453 181.333 83.0773 188.755 83.0773C195.223 83.0773 200.261 85.4943 203.869 90.3283C207.546 95.1622 209.384 101.937 209.384 110.651C209.384 119.366 207.546 126.141 203.869 130.975C200.261 135.809 195.223 138.226 188.755 138.226C181.333 138.226 175.921 134.957 172.517 128.421H172.108V157.425H163.938V84.3028ZM185.589 130.975C190.355 130.975 194.031 129.545 196.618 126.685C199.274 123.758 200.601 119.911 200.601 115.145V106.158C200.601 101.392 199.274 97.5792 196.618 94.7197C194.031 91.7921 190.355 90.3283 185.589 90.3283C183.75 90.3283 182.014 90.5666 180.38 91.0432C178.746 91.5197 177.316 92.2346 176.091 93.1878C174.865 94.0729 173.878 95.1963 173.129 96.558C172.448 97.8516 172.108 99.3835 172.108 101.154V120.149C172.108 121.919 172.448 123.485 173.129 124.847C173.878 126.141 174.865 127.264 176.091 128.217C177.316 129.102 178.746 129.783 180.38 130.26C182.014 130.736 183.75 130.975 185.589 130.975ZM247.029 138.226C243.216 138.226 239.778 137.579 236.714 136.285C233.718 134.992 231.131 133.153 228.952 130.77C226.842 128.319 225.208 125.426 224.05 122.09C222.893 118.685 222.314 114.907 222.314 110.754C222.314 106.532 222.893 102.72 224.05 99.3154C225.276 95.9112 226.944 93.0176 229.055 90.6346C231.165 88.1836 233.684 86.3113 236.612 85.0177C239.608 83.7241 242.91 83.0773 246.518 83.0773C250.059 83.0773 253.259 83.7241 256.118 85.0177C259.046 86.3113 261.531 88.1155 263.573 90.4304C265.616 92.6772 267.182 95.3665 268.271 98.4984C269.36 101.63 269.905 105.069 269.905 108.813V112.694H230.893V115.145C230.893 117.46 231.267 119.604 232.016 121.579C232.765 123.553 233.82 125.255 235.182 126.685C236.612 128.115 238.314 129.238 240.288 130.055C242.331 130.804 244.578 131.179 247.029 131.179C250.569 131.179 253.633 130.362 256.22 128.728C258.807 127.094 260.782 124.847 262.144 121.987L268.169 126.072C266.603 129.613 263.982 132.54 260.305 134.855C256.697 137.102 252.271 138.226 247.029 138.226ZM246.518 89.8176C244.271 89.8176 242.195 90.2261 240.288 91.0432C238.382 91.8602 236.714 92.9836 235.284 94.4133C233.923 95.8431 232.833 97.5452 232.016 99.5196C231.267 101.426 230.893 103.537 230.893 105.851V106.566H261.122V105.443C261.122 103.128 260.748 101.017 259.999 99.1111C259.318 97.2048 258.331 95.5708 257.037 94.2091C255.812 92.7793 254.28 91.69 252.442 90.941C250.671 90.1921 248.697 89.8176 246.518 89.8176ZM286.716 137V84.3028H294.886V92.8814H295.295C295.839 91.5878 296.52 90.3623 297.337 89.2049C298.154 87.9794 299.141 86.9241 300.299 86.039C301.524 85.1539 302.954 84.439 304.588 83.8943C306.222 83.3496 308.129 83.0773 310.307 83.0773C315.822 83.0773 320.248 84.8475 323.584 88.3879C326.92 91.8602 328.588 96.7963 328.588 103.196V137H320.418V104.626C320.418 99.792 319.362 96.2176 317.252 93.9027C315.141 91.5197 312.043 90.3283 307.958 90.3283C306.324 90.3283 304.724 90.5325 303.158 90.941C301.592 91.3495 300.197 91.9623 298.971 92.7793C297.746 93.5963 296.758 94.6516 296.01 95.9452C295.261 97.2388 294.886 98.7367 294.886 100.439V137H286.716ZM350.199 137V65.7158H358.777V129.545H392.581V137H350.199ZM445.647 101.256V78.6859H444.83L429.817 115.349L414.805 78.6859H413.988V101.256V137H406.124V65.7158H417.154L429.715 97.1707H430.328L442.89 65.7158H453.511V137H445.647V101.256ZM490.849 138.226C484.449 138.226 479.207 137.068 475.122 134.753C471.037 132.37 467.666 129.341 465.011 125.664L471.241 120.558C474.032 124.03 476.96 126.617 480.024 128.319C483.156 130.021 486.866 130.872 491.155 130.872C496.33 130.872 500.279 129.681 503.002 127.298C505.725 124.915 507.087 121.579 507.087 117.29C507.087 113.817 506.1 111.128 504.125 109.222C502.151 107.247 498.713 105.851 493.811 105.034L485.845 103.707C482.373 103.094 479.445 102.175 477.062 100.949C474.747 99.7239 472.875 98.2601 471.445 96.558C470.015 94.7878 468.994 92.8814 468.381 90.8389C467.768 88.7283 467.462 86.5496 467.462 84.3028C467.462 77.7667 469.607 72.8306 473.896 69.4945C478.185 66.1584 483.973 64.4903 491.258 64.4903C496.977 64.4903 501.777 65.4435 505.657 67.3498C509.606 69.2562 512.772 71.9455 515.155 75.4178L509.13 80.6263C507.155 78.0391 504.772 75.9285 501.981 74.2944C499.189 72.6604 495.581 71.8434 491.155 71.8434C486.321 71.8434 482.611 72.8647 480.024 74.9072C477.436 76.9497 476.143 80.0135 476.143 84.0986C476.143 87.2985 477.096 89.9198 479.002 91.9623C480.977 93.9367 484.483 95.3665 489.521 96.2516L497.181 97.5792C500.653 98.192 503.581 99.1111 505.964 100.337C508.347 101.562 510.253 103.026 511.683 104.728C513.181 106.43 514.236 108.337 514.849 110.447C515.461 112.558 515.768 114.771 515.768 117.085C515.768 123.69 513.589 128.864 509.232 132.609C504.942 136.353 498.815 138.226 490.849 138.226Z" fill="#52FF00"/>
</svg>
